<?xml version="1.0" encoding="utf-8"?>
<!-- Generator: Adobe Illustrator 15.0.0, SVG Export Plug-In . SVG Version: 6.00 Build 0)  -->
<!DOCTYPE svg PUBLIC "-//W3C//DTD SVG 1.1//EN" "http://www.w3.org/Graphics/SVG/1.1/DTD/svg11.dtd">
<svg version="1.1" id="图层_1" xmlns="http://www.w3.org/2000/svg" xmlns:xlink="http://www.w3.org/1999/xlink" x="0px" y="0px"
	 width="50px" height="50px" viewBox="0 0 50 50" enable-background="new 0 0 50 50" xml:space="preserve">
<path fill-rule="evenodd" clip-rule="evenodd" fill="#0D0D0D" d="M45.374,9.069c-6.279-6.353-12.677-4.764-17.246,0l-3.135,3.213
	l-3.136-3.213c-4.569-4.764-10.982-6.446-17.246,0C0.013,13.802,0.332,21.914,4.9,26.678l20.091,20.945l20.092-20.945
	C49.651,21.914,50.013,13.761,45.374,9.069z M42.239,25.132l-17.246,17.67L7.747,25.132c-4.095-4.269-4.095-10.188,0-14.457
	c4.095-4.269,8.447-2.663,12.543,1.606l4.703,4.819l4.703-4.819c4.095-4.269,8.447-5.875,12.543-1.606
	C46.333,14.944,46.333,20.864,42.239,25.132z"/>
</svg>
