<?xml version="1.0" encoding="utf-8"?>
<!-- Generator: Adobe Illustrator 15.0.0, SVG Export Plug-In . SVG Version: 6.00 Build 0)  -->
<!DOCTYPE svg PUBLIC "-//W3C//DTD SVG 1.1//EN" "http://www.w3.org/Graphics/SVG/1.1/DTD/svg11.dtd">
<svg version="1.1" id="图层_1" xmlns="http://www.w3.org/2000/svg" xmlns:xlink="http://www.w3.org/1999/xlink" x="0px" y="0px"
	 width="180px" height="50px" viewBox="0 0 180 50" enable-background="new 0 0 180 50" xml:space="preserve">
<path fill="#ED6D1F" d="M69.505,16.896c0,7.231-5.676,13.092-12.67,13.092H13.904c-6.998,0-12.674-5.86-12.674-13.092
	c0-7.235,5.676-13.099,12.674-13.099h42.932C63.83,3.796,69.505,9.66,69.505,16.896"/>
<path fill="#FFFFFF" d="M23.384,22.778c0,1.939-1.37,3.512-3.063,3.512c-1.685,0-3.051-1.572-3.051-3.512V10.574
	c0-1.936,1.367-3.504,3.051-3.504c1.692,0,3.063,1.568,3.063,3.504V22.778z"/>
<path fill="#009FB9" d="M17.27,16.641v6.153c0,1.926,1.367,3.496,3.051,3.496c1.695,0,3.063-1.57,3.063-3.496v-6.153H17.27"/>
<path fill="#FFFFFF" d="M38.431,22.738c0,1.932-1.375,3.504-3.061,3.504c-1.688,0-3.061-1.572-3.061-3.504V10.537
	c0-1.939,1.373-3.509,3.061-3.509c1.686,0,3.061,1.569,3.061,3.509V22.738z"/>
<path fill="#009FB9" d="M32.31,16.641v6.153c0,1.926,1.375,3.496,3.059,3.496c1.688,0,3.063-1.57,3.063-3.496v-6.153H32.31"/>
<path fill="#FFFFFF" d="M53.47,22.778c0,1.939-1.369,3.512-3.061,3.512c-1.688,0-3.057-1.572-3.057-3.512V10.574
	c0-1.936,1.369-3.504,3.057-3.504c1.691,0,3.061,1.568,3.061,3.504V22.778z"/>
<path fill="#009FB9" d="M47.351,16.641v6.153c0,1.926,1.371,3.496,3.059,3.496c1.691,0,3.059-1.57,3.059-3.496v-6.153H47.351"/>
<text transform="matrix(1.1197 0 0 1 1.957 46.4736)" fill="#009FB9" font-family="'STXihei'" font-size="14.0967" letter-spacing="3.572">专做药品特卖的网站</text>
<path fill="#C9CACA" d="M144.929,17.234c0.275,0.509,0.14,1.118-0.304,1.359c-0.444,0.241-1.027,0.022-1.304-0.487l-1.74-3.207
	c-0.275-0.509-0.14-1.116,0.304-1.357c0.444-0.241,1.028-0.024,1.304,0.485L144.929,17.234z"/>
<g opacity="0.5">
	<g>
		<defs>
			<rect id="SVGID_1_" x="142.014" y="13.444" width="1.461" height="2.544"/>
		</defs>
		<clipPath id="SVGID_2_">
			<use xlink:href="#SVGID_1_"  overflow="visible"/>
		</clipPath>
		<path clip-path="url(#SVGID_2_)" fill="#FFFFFF" d="M143.338,15.433c0.138,0.254,0.18,0.5,0.092,0.547
			c-0.087,0.047-0.27-0.121-0.407-0.377l-0.872-1.605c-0.137-0.253-0.179-0.498-0.092-0.545c0.088-0.047,0.271,0.121,0.408,0.375
			L143.338,15.433z"/>
	</g>
</g>
<path fill="#ED6D1F" d="M142.445,16.494l0.877,1.617c0.274,0.506,0.858,0.723,1.303,0.483c0.443-0.242,0.579-0.849,0.305-1.355
	l-0.877-1.617L142.445,16.494"/>
<path fill="#009FB9" d="M124.094,5.586l1.336-0.972l2.268,1.523l-1.057,0.745h-16.107v12.459h13.703l1.381-0.953l2.311,1.535
	l-1.072,0.789h-16.322v0.05h-3.5V4.846l3.5,0.339v0.402H124.094z M122.67,9.085l1.287-0.852l2.168,1.436l-0.998,0.801h-4.652v1.954
	c0,0.164-0.01,0.322-0.027,0.474h3.414l1.217-0.869l2.168,1.476l-1.021,0.782h-4.561c1.547,0.856,3.145,1.852,4.816,3.018
	l-2.971,1.634c-1.324-1.35-2.674-2.564-4.064-3.626c-1.279,1.574-3.693,2.811-7.252,3.709l-1.164-1.239
	c2.602-0.958,4.332-2.126,5.189-3.496h-4.797l-0.482-1.389h5.813c0.053-0.243,0.072-0.501,0.072-0.756v-1.672h-1.451
	c-0.902,0.815-1.928,1.422-3.08,1.809l-1.312-0.793c0.704-0.643,1.333-1.366,1.866-2.172c0.506-0.751,0.852-1.48,1.052-2.158
	l3.511,0.793c-0.23,0.414-0.477,0.799-0.746,1.136H122.67z"/>
<path fill="#009FB9" d="M141.414,8.624l3.768,0.873c-0.24,0.421-0.48,0.821-0.746,1.199h2.291l1.563-1.218l2.998,1.897l-0.727,0.589
	v5.078c0,2.088-0.383,3.278-1.148,3.558c-0.463,0.307-1.4,0.467-2.805,0.467h-1.449c0-0.832-0.941-1.35-2.83-1.566l0.172-1.061
	l3.131,0.196c0.521,0,0.828-0.018,0.906-0.057c0.314-0.132,0.467-0.29,0.467-0.494v-5.919h-3.764
	c-1.166,1.21-2.537,2.093-4.115,2.638l-1.238-0.747c0.717-0.65,1.344-1.373,1.895-2.164c-1.646,1.2-3.357,2.275-5.092,3.246
	c1.105-0.178,2.203-0.374,3.293-0.587l0.723,1.154c-2.051,0.863-4.521,1.707-7.414,2.524l-1.539-2.449
	c0.486-0.054,0.973-0.102,1.453-0.162c0.709-0.516,1.381-1.048,1.979-1.562c-0.99,0.161-1.906,0.293-2.732,0.39l-0.748-2.165h0.654
	c1.186-1.253,1.992-2.563,2.42-3.922l0.732,0.176V7.36h-3.688l-0.443-1.348h4.131V4.525l3.795,0.339v1.148h5.373V4.545l3.842,0.335
	v1.132h1.279l1.308-0.869l2.128,1.44l-1.023,0.777h-3.691v0.982l-3.842,0.37V7.36h-5.373v1.106l-2.854,0.283l2.082,0.461
	c-0.936,1.185-1.963,2.165-3.084,2.955c0.699-0.057,1.357-0.122,1.984-0.185c0.545-0.556,1.047-1.107,1.498-1.655l3.082,1.21
	c0.047-0.055,0.086-0.121,0.143-0.196C140.764,10.395,141.186,9.488,141.414,8.624 M138.543,17.084l0.723,1.145
	c-2.146,1.05-4.729,2.07-7.734,3.067l-1.523-2.455C132.834,18.439,135.674,17.859,138.543,17.084"/>
<path fill="#009FB9" d="M154.857,4.994l3.693,0.828c-0.275,0.736-0.572,1.421-0.885,2.059h1.102l1.352-0.885l1.496,0.835
	c0.268-0.551,0.488-1.099,0.682-1.654l2.199,0.492c-0.023,0.161-0.043,0.307-0.076,0.444h2.152
	c-0.469-0.525-0.951-1.012-1.443-1.434l1.535-0.855c1.063,0.367,2.195,0.855,3.391,1.452l-1.497,0.837h2.386l1.264-0.936L175,7.831
	l-1.277,0.463l-1.373,1.822l1.057,0.62l-0.732,0.675v2.93l-3.322,0.299v-0.41h-3.646v1.351h3.947l1.504-0.955l2.871,1.702
	l-0.865,0.684v3.496l-3.34,0.336v-0.719h-4.117v0.52l-3.391,0.332V10.273l-1.441-0.582l-1.688,1.284l-1.119-0.342l0.652-1.461
	h-1.703c-0.852,1.556-1.768,2.812-2.762,3.784l-1.309-0.559C153.893,10.034,154.529,7.567,154.857,4.994 M156.029,11.18l3.434,0.335
	v5.997c0.656-0.167,1.295-0.373,1.922-0.602l0.719,1.155c-1.402,0.98-3.084,1.945-5.066,2.876l-1.551-2.465
	c0.188-0.037,0.371-0.072,0.543-0.113V11.18z M165.705,10.092h3.58l1.213-0.809l0.404-0.817h-6.854
	c-0.129,0.356-0.266,0.715-0.426,1.076l2.082,0.184V10.092z M169.352,11.458h-3.646v1.426h3.646V11.458z M169.822,16.93h-4.117v1.88
	h4.117V16.93z"/>
<path fill="#009FB9" d="M84.512,26.437c-0.305,0-0.504,0.083-0.58,0.269l-1.514,3.086h-0.821l-1.082-1.889l-1.108,1.889h-0.801
	l-1.746-3.021c-0.123-0.219-0.303-0.321-0.561-0.334v-0.603h2.691v0.603c-0.24,0-0.359,0.047-0.359,0.147
	c0,0.015,0.051,0.104,0.15,0.266l0.725,1.24l0.561-0.977l-0.285-0.488c-0.088-0.133-0.244-0.201-0.479-0.201v-0.59h2.736v0.603
	c-0.241,0-0.375,0.042-0.375,0.115c0,0.047,0.045,0.155,0.134,0.323l0.62,1.142l0.52-1.081c0.07-0.145,0.104-0.238,0.104-0.257
	c0-0.159-0.223-0.242-0.668-0.242v-0.603h2.139V26.437z"/>
<path fill="#009FB9" d="M93.554,26.437c-0.313,0-0.503,0.083-0.587,0.269l-1.515,3.086h-0.82l-1.077-1.889l-1.104,1.889h-0.813
	l-1.744-3.021c-0.117-0.219-0.306-0.321-0.559-0.334v-0.603h2.689v0.603c-0.236,0-0.354,0.047-0.354,0.147
	c0,0.015,0.045,0.104,0.154,0.266l0.711,1.24l0.563-0.977l-0.286-0.488c-0.082-0.133-0.242-0.201-0.475-0.201v-0.59h2.743v0.603
	c-0.251,0-0.374,0.042-0.374,0.115c0,0.047,0.045,0.155,0.125,0.323l0.618,1.142l0.522-1.081c0.065-0.145,0.104-0.238,0.104-0.257
	c0-0.159-0.228-0.242-0.663-0.242v-0.603h2.138V26.437z"/>
<path fill="#009FB9" d="M102.59,26.437c-0.309,0-0.508,0.083-0.584,0.269l-1.518,3.086h-0.814l-1.08-1.889l-1.108,1.889h-0.804
	l-1.75-3.021c-0.117-0.219-0.303-0.321-0.557-0.334v-0.603h2.689v0.603c-0.242,0-0.355,0.047-0.355,0.147
	c0,0.015,0.049,0.104,0.15,0.266l0.719,1.24l0.559-0.977l-0.281-0.488c-0.084-0.133-0.245-0.201-0.479-0.201v-0.59h2.746v0.603
	c-0.25,0-0.383,0.042-0.383,0.115c0,0.047,0.047,0.155,0.135,0.323l0.613,1.142l0.525-1.081c0.068-0.145,0.105-0.238,0.105-0.257
	c0-0.159-0.227-0.242-0.666-0.242v-0.603h2.137V26.437z"/>
<path fill="#009FB9" d="M106.086,29.09c0,0.229-0.1,0.42-0.328,0.589c-0.221,0.153-0.5,0.229-0.818,0.229
	c-0.316,0-0.59-0.076-0.818-0.229c-0.219-0.169-0.33-0.36-0.33-0.589c0-0.216,0.111-0.418,0.33-0.578
	c0.229-0.152,0.502-0.232,0.818-0.232c0.318,0,0.598,0.08,0.818,0.232C105.986,28.672,106.086,28.874,106.086,29.09"/>
<path fill="#009FB9" d="M112.965,29.79h-4.416v-0.591h0.268c0.256,0,0.479-0.049,0.654-0.143c0.181-0.104,0.262-0.246,0.262-0.436
	v-2.855c0-0.361-0.279-0.537-0.848-0.537h-0.336v-0.598c0.867-0.085,1.662-0.324,2.391-0.716h0.859v4.706
	c0,0.177,0.086,0.318,0.254,0.426c0.178,0.1,0.389,0.152,0.662,0.152h0.25V29.79z"/>
<path fill="#009FB9" d="M120.725,29.79h-4.424v-0.591h0.275c0.248,0,0.475-0.049,0.656-0.143c0.164-0.104,0.256-0.246,0.256-0.436
	v-2.855c0-0.361-0.277-0.537-0.85-0.537h-0.338v-0.598c0.86-0.085,1.666-0.324,2.389-0.716h0.863v4.706
	c0,0.177,0.082,0.318,0.252,0.426c0.178,0.1,0.398,0.152,0.66,0.152h0.26V29.79z"/>
<path fill="#009FB9" d="M128.482,29.79h-4.422v-0.591h0.268c0.259,0,0.477-0.049,0.656-0.143c0.172-0.104,0.258-0.246,0.258-0.436
	v-2.855c0-0.361-0.285-0.537-0.84-0.537h-0.342v-0.598c0.867-0.085,1.66-0.324,2.385-0.716h0.861v4.706
	c0,0.177,0.082,0.318,0.26,0.426c0.162,0.1,0.389,0.152,0.656,0.152h0.26V29.79z"/>
<path fill="#009FB9" d="M136.424,26.354c-0.334,0-0.58,0.127-0.717,0.375l-1.871,3.155c-0.539,0.918-1.23,1.373-2.078,1.373
	c-0.328,0-0.602-0.049-0.811-0.148c-0.236-0.121-0.361-0.292-0.361-0.518c0-0.151,0.07-0.28,0.213-0.383
	c0.152-0.104,0.344-0.16,0.561-0.16c0.172,0,0.357,0.061,0.561,0.188c0.211,0.112,0.361,0.176,0.457,0.176
	c0.146,0,0.314-0.135,0.512-0.399l0.316-0.407l-1.914-2.861c-0.162-0.261-0.41-0.39-0.738-0.39v-0.519h3.014v0.519
	c-0.357,0-0.523,0.062-0.523,0.165c0,0.059,0.07,0.189,0.201,0.406l0.82,1.258l0.703-1.202c0.057-0.106,0.092-0.22,0.092-0.347
	c0-0.186-0.199-0.28-0.59-0.28v-0.519h2.154V26.354z"/>
<path fill="#009FB9" d="M142.744,29.471c-0.494,0.295-0.965,0.438-1.402,0.438c-0.572,0-0.943-0.144-1.092-0.431
	c-0.506,0.287-1.008,0.431-1.49,0.431c-0.438,0-0.797-0.089-1.078-0.254c-0.288-0.177-0.428-0.409-0.428-0.72
	c0-0.424,0.34-0.803,1.043-1.129c0.52-0.244,1.143-0.43,1.867-0.566v-0.367c0-0.337-0.191-0.521-0.574-0.521
	c-0.348,0-0.529,0.143-0.529,0.431c0,0.031,0.029,0.117,0.078,0.274l-1.646,0.414c-0.125-0.262-0.193-0.457-0.193-0.598
	c0-0.768,0.811-1.154,2.447-1.154c0.684,0,1.209,0.078,1.543,0.252c0.404,0.199,0.613,0.525,0.613,0.988v1.684
	c0,0.231,0.096,0.344,0.283,0.344c0.156,0,0.342-0.091,0.559-0.28V29.471z M140.164,28.822v-0.95
	c-0.709,0.244-1.074,0.513-1.074,0.816c0,0.227,0.141,0.336,0.429,0.336C139.717,29.024,139.943,28.958,140.164,28.822"/>
<path fill="#009FB9" d="M148.957,27.801c0,0.594-0.264,1.095-0.785,1.496c-0.535,0.41-1.182,0.617-1.961,0.617
	c-0.809,0-1.469-0.207-1.949-0.609c-0.465-0.369-0.693-0.844-0.693-1.437c0-0.587,0.252-1.098,0.766-1.524
	c0.516-0.414,1.164-0.625,1.932-0.625c0.83,0,1.484,0.191,1.975,0.567C148.721,26.678,148.957,27.178,148.957,27.801
	 M147.117,28.154c0-1.203-0.301-1.811-0.912-1.811c-0.537,0-0.803,0.397-0.803,1.187c0,1.177,0.313,1.763,0.951,1.763
	C146.857,29.293,147.117,28.91,147.117,28.154"/>
<path fill="#009FB9" d="M152.459,29.09c0,0.229-0.111,0.42-0.334,0.589c-0.227,0.153-0.5,0.229-0.813,0.229
	c-0.32,0-0.6-0.076-0.822-0.229c-0.221-0.169-0.328-0.36-0.328-0.589c0-0.216,0.107-0.418,0.328-0.578
	c0.223-0.152,0.502-0.232,0.822-0.232c0.313,0,0.586,0.08,0.813,0.232C152.348,28.672,152.459,28.874,152.459,29.09"/>
<path fill="#009FB9" d="M158.502,28.771c-0.711,0.761-1.545,1.14-2.525,1.14c-0.736,0-1.316-0.221-1.748-0.637
	c-0.381-0.386-0.566-0.857-0.566-1.404c0-0.619,0.213-1.127,0.635-1.515c0.477-0.427,1.139-0.636,1.994-0.636
	c0.518,0,0.971,0.08,1.35,0.238c0.457,0.189,0.682,0.444,0.682,0.761c0,0.184-0.066,0.323-0.211,0.444
	c-0.156,0.119-0.357,0.174-0.6,0.174c-0.443,0-0.734-0.198-0.85-0.574c-0.086-0.28-0.262-0.424-0.535-0.424
	c-0.293,0-0.514,0.076-0.666,0.244c-0.158,0.166-0.234,0.359-0.234,0.586c0,0.531,0.125,0.949,0.383,1.248
	c0.26,0.305,0.609,0.459,1.064,0.459c0.377,0,0.781-0.158,1.189-0.476L158.502,28.771z"/>
<path fill="#009FB9" d="M164.721,27.801c0,0.594-0.268,1.095-0.801,1.496c-0.52,0.41-1.176,0.617-1.947,0.617
	c-0.82,0-1.473-0.207-1.947-0.609c-0.475-0.369-0.699-0.844-0.699-1.437c0-0.587,0.252-1.098,0.762-1.524
	c0.52-0.414,1.174-0.625,1.943-0.625c0.82,0,1.475,0.191,1.961,0.567C164.473,26.678,164.721,27.178,164.721,27.801 M162.869,28.154
	c0-1.203-0.301-1.811-0.906-1.811c-0.541,0-0.811,0.397-0.811,1.187c0,1.177,0.32,1.763,0.957,1.763
	C162.617,29.293,162.869,28.91,162.869,28.154"/>
<path fill="#009FB9" d="M174.955,29.79h-2.949v-0.591c0.355,0,0.541-0.139,0.541-0.415v-1.535c0-0.392-0.158-0.573-0.5-0.573
	c-0.271,0-0.568,0.096-0.891,0.283v1.825c0,0.276,0.213,0.415,0.619,0.415v0.591h-2.916v-0.591c0.361,0,0.551-0.139,0.551-0.415
	v-1.503c0-0.408-0.164-0.605-0.5-0.605c-0.174,0-0.471,0.108-0.863,0.329v1.779c0,0.276,0.193,0.415,0.578,0.415v0.591h-3.08v-0.591
	c0.508,0,0.754-0.139,0.754-0.415v-1.743l-0.768-0.355v-0.379l2.016-0.473h0.5v0.473c0.635-0.391,1.17-0.586,1.602-0.586
	c0.645,0,1.098,0.195,1.363,0.586c0.578-0.391,1.172-0.586,1.766-0.586c1.01,0,1.521,0.409,1.521,1.23v1.833
	c0,0.276,0.215,0.415,0.656,0.415V29.79z"/>
<path fill="#009FB9" d="M82.231,20.8h-5.856v-1.364c0.424,0,0.764-0.15,1.016-0.472c0.23-0.313,0.359-0.701,0.359-1.192V9.878
	c0-1.028-0.461-1.54-1.375-1.54V6.961c1.217-0.248,2.334-0.886,3.338-1.906h1.111v12.717c0,0.491,0.117,0.879,0.367,1.192
	c0.252,0.321,0.605,0.472,1.04,0.472V20.8z"/>
<path fill="#009FB9" d="M92.551,20.8h-5.867v-1.364c0.432,0,0.764-0.15,1.012-0.472c0.234-0.313,0.363-0.701,0.363-1.192V9.878
	c0-1.028-0.456-1.54-1.375-1.54V6.961c1.225-0.248,2.346-0.886,3.343-1.906h1.109v12.717c0,0.491,0.121,0.879,0.359,1.192
	c0.255,0.321,0.609,0.472,1.056,0.472V20.8z"/>
<path fill="#009FB9" d="M102.855,20.8h-5.854v-1.364c0.428,0,0.768-0.15,1.002-0.472c0.246-0.313,0.365-0.701,0.365-1.192V9.878
	c0-1.028-0.453-1.54-1.367-1.54V6.961c1.219-0.248,2.334-0.886,3.346-1.906h1.1v12.717c0,0.491,0.125,0.879,0.371,1.192
	c0.25,0.321,0.604,0.472,1.037,0.472V20.8z"/>
</svg>
